<?xml version="1.0" standalone="no"?>
<!DOCTYPE svg PUBLIC "-//W3C//DTD SVG 20010904//EN"
 "http://www.w3.org/TR/2001/REC-SVG-20010904/DTD/svg10.dtd">
<svg version="1.0" xmlns="http://www.w3.org/2000/svg"
 width="315.000000pt" height="160.000000pt" viewBox="0 0 315.000000 160.000000"
 preserveAspectRatio="xMidYMid meet">
<metadata>
Created by potrace 1.16, written by Peter Selinger 2001-2019
</metadata>
<g transform="translate(0.000000,160.000000) scale(0.100000,-0.100000)"
fill="#000000" stroke="none">
<path d="M1490 661 c-50 -16 -96 -44 -137 -83 l-41 -41 -68 21 c-38 12 -70 19
-73 17 -12 -13 29 -36 90 -49 165 -38 403 -38 586 0 97 20 120 29 132 53 10
19 7 18 -65 -6 l-76 -25 -36 35 c-61 58 -116 80 -207 83 -44 2 -91 0 -105 -5z
m215 -29 c22 -11 55 -35 73 -53 31 -31 32 -33 14 -40 -11 -4 -66 -13 -123 -20
-95 -11 -191 -8 -288 7 -39 6 -40 7 -25 29 19 29 82 73 131 91 53 20 167 13
218 -14z"/>
</g>
</svg>
