<?xml version="1.0" standalone="no"?>
<!DOCTYPE svg PUBLIC "-//W3C//DTD SVG 20010904//EN"
 "http://www.w3.org/TR/2001/REC-SVG-20010904/DTD/svg10.dtd">
<svg version="1.0" xmlns="http://www.w3.org/2000/svg"
 width="225.000000pt" height="225.000000pt" viewBox="0 0 225.000000 225.000000"
 preserveAspectRatio="xMidYMid meet">
<metadata>
Created by potrace 1.16, written by Peter Selinger 2001-2019
</metadata>
<g transform="translate(0.000000,225.000000) scale(0.100000,-0.100000)"
fill="#000000" stroke="none">
<path d="M370 1125 l0 -555 35 0 35 0 0 260 0 260 685 0 685 0 0 -260 0 -260
35 0 35 0 0 555 0 555 -35 0 -35 0 0 -260 0 -260 -685 0 -685 0 0 260 0 260
-35 0 -35 0 0 -555z"/>
<path d="M520 1460 l0 -220 610 0 610 0 0 220 0 220 -40 0 -40 0 0 -185 0
-185 -535 0 -535 0 0 185 0 185 -35 0 -35 0 0 -220z"/>
<path d="M670 1535 l0 -145 30 0 30 0 0 145 0 145 -30 0 -30 0 0 -145z"/>
<path d="M1520 1535 l0 -145 35 0 35 0 0 145 0 145 -35 0 -35 0 0 -145z"/>
<path d="M520 790 l0 -220 35 0 35 0 0 185 0 185 535 0 535 0 0 -185 0 -185
40 0 40 0 0 220 0 220 -610 0 -610 0 0 -220z"/>
<path d="M660 715 l0 -145 35 0 35 0 0 145 0 145 -35 0 -35 0 0 -145z"/>
<path d="M1520 715 l0 -145 30 0 30 0 0 145 0 145 -30 0 -30 0 0 -145z"/>
</g>
</svg>
